<svg width="24" height="24" viewBox="0 0 24 24" fill="none" xmlns="http://www.w3.org/2000/svg">
<path d="M12.1174 0.00585926C12.1253 0.00664011 12.133 0.00844013 12.1409 0.00937481H12.4702L12.653 0.023437C13.0707 0.0876063 13.4293 0.369378 13.5871 0.771078C13.7449 1.17292 13.6739 1.62334 13.4113 1.95465L13.2871 2.08824C11.9509 3.32967 11.0921 5.00071 10.8599 6.80963C10.6277 8.61844 11.0374 10.4518 12.0166 11.9904C12.9959 13.5288 14.4835 14.676 16.2206 15.2317C17.9576 15.7873 19.8346 15.7169 21.525 15.0325L21.6961 14.9774C22.0995 14.8808 22.5303 14.999 22.8283 15.2997C23.1688 15.6434 23.2695 16.1584 23.0838 16.6051C22.25 18.611 20.8874 20.353 19.1412 21.6453C17.3949 22.9375 15.3298 23.7321 13.1675 23.9433C11.0054 24.1543 8.82658 23.774 6.86337 22.8441C4.90001 21.914 3.22568 20.4685 2.01953 18.6617C0.813396 16.855 0.120211 14.7542 0.0142471 12.5845C-0.0916116 10.415 0.394024 8.25757 1.41829 6.34206C2.44265 4.4264 3.96747 2.82428 5.83085 1.70739C7.69422 0.590515 9.82652 0.000523947 11.999 0L12.1174 0.00585926ZM9.78984 2.65776C8.83425 2.88393 7.91475 3.25697 7.06496 3.76633C5.5745 4.65974 4.35437 5.94066 3.53491 7.4729C2.71543 9.00543 2.32737 10.7327 2.41214 12.4685C2.497 14.204 3.05071 15.8841 4.01543 17.3293C4.98035 18.7748 6.32052 19.9309 7.89121 20.675C9.46177 21.4189 11.2046 21.7227 12.9343 21.5539C14.664 21.385 16.3155 20.7501 17.7125 19.7164C18.3958 19.2107 19.005 18.6179 19.5279 17.9575C18.1752 18.0814 16.801 17.9369 15.4881 17.5168C13.2166 16.79 11.2719 15.2902 9.99142 13.2782C8.71089 11.2662 8.17584 8.86928 8.47955 6.50378C8.65508 5.13672 9.10466 3.83049 9.78984 2.65776Z" fill="#FF4646"/>
<path d="M16.7993 7.20946C16.7993 6.8912 16.6727 6.58607 16.4477 6.36103C16.2507 6.16407 15.9924 6.04257 15.7175 6.01534L15.5992 6.00948C14.9363 6.00948 14.399 5.47223 14.399 4.8095C14.399 4.14678 14.9363 3.60953 15.5992 3.60953C15.9174 3.60953 16.2226 3.48301 16.4477 3.25797C16.6727 3.03293 16.7993 2.7278 16.7993 2.40955C16.7993 1.74682 17.3366 1.20958 17.9994 1.20958C18.6622 1.20958 19.1995 1.74682 19.1995 2.40955C19.1995 2.7278 19.326 3.03293 19.5511 3.25797C19.7481 3.45494 20.0064 3.57644 20.2813 3.60367L20.3996 3.60953C21.0624 3.60953 21.5998 4.14678 21.5998 4.8095C21.5998 5.47223 21.0624 6.00948 20.3996 6.00948C20.0813 6.00948 19.7762 6.136 19.5511 6.36103C19.326 6.58607 19.1995 6.8912 19.1995 7.20946C19.1995 7.87218 18.6622 8.40943 17.9994 8.40943C17.3366 8.40943 16.7993 7.87218 16.7993 7.20946Z" fill="#FF4646"/>
<path d="M20.3996 12.0094C19.7368 12.0094 19.1995 11.4721 19.1995 10.8094C19.1995 10.1467 19.7368 9.60941 20.3996 9.60941C20.3996 8.94668 20.9369 8.40943 21.5998 8.40943C22.2626 8.40943 22.7999 8.94668 22.7999 9.60941C23.4627 9.60941 24 10.1467 24 10.8094C24 11.4721 23.4627 12.0094 22.7999 12.0094C22.7999 12.6721 22.2626 13.2093 21.5998 13.2093C20.9369 13.2093 20.3996 12.6721 20.3996 12.0094Z" fill="#FF4646"/>
</svg>
